<svg width="29" height="28" viewBox="0 0 29 28" fill="none" xmlns="http://www.w3.org/2000/svg">
<path d="M14.5 1.0001C25.5 1.52392 28.9 25.8001 14.5 27.0001C0.0999756 28.2001 4.00016 0.500097 14.5 1.0001Z" fill="white"/>
<path d="M14.5 0C9.84131 0 4.10596 6.57573 4.10596 15.4847C4.10596 24.394 9.40889 28 14.5 28C19.5908 28 24.894 24.394 24.894 15.4847C24.894 6.57573 19.1585 0 14.5 0ZM14.5 26.0312C10.427 26.0312 6.07471 23.2606 6.07471 15.4847C6.07471 11.795 7.16529 8.27154 9.14536 5.56363C10.7665 3.34616 12.8181 1.96875 14.5 1.96875C16.1816 1.96875 18.2335 3.34616 19.8546 5.56358C21.8347 8.27148 22.9252 11.795 22.9252 15.4847C22.9252 23.2606 18.5729 26.0312 14.5 26.0312Z" fill="black"/>
<path d="M5 16L9.63158 12L13 16L16.7895 12L19.3158 16L23.5 12" stroke="black" stroke-width="2" stroke-linejoin="round"/>
</svg>
