<svg width="54" height="54" viewBox="0 0 54 54" fill="none" xmlns="http://www.w3.org/2000/svg">
<path d="M48.8925 40.5L30.8925 9.00002C30.5 8.30748 29.9308 7.73144 29.243 7.33067C28.5553 6.9299 27.7735 6.71875 26.9775 6.71875C26.1814 6.71875 25.3997 6.9299 24.7119 7.33067C24.0241 7.73144 23.4549 8.30748 23.0625 9.00002L5.06246 40.5C4.66575 41.1871 4.45773 41.9668 4.45948 42.7602C4.46124 43.5535 4.67271 44.3323 5.07247 45.0176C5.47222 45.7029 6.04605 46.2703 6.73578 46.6624C7.42551 47.0544 8.20663 47.2572 8.99996 47.25H45C45.7895 47.2492 46.5649 47.0407 47.2483 46.6454C47.9318 46.2501 48.4992 45.682 48.8936 44.998C49.288 44.3141 49.4956 43.5384 49.4954 42.7489C49.4952 41.9593 49.2872 41.1838 48.8925 40.5Z" fill="#FF0000" fill-opacity="0.1" stroke="#FF0000" stroke-width="4" stroke-linecap="round" stroke-linejoin="round"/>
<path d="M27 20.25V29.25" stroke="#FF0000" stroke-width="4" stroke-linecap="round" stroke-linejoin="round"/>
<path d="M27 38.25H27.0225" stroke="#FF0000" stroke-width="4" stroke-linecap="round" stroke-linejoin="round"/>
</svg>
