<svg width="28" height="28" viewBox="0 0 28 28" fill="none" xmlns="http://www.w3.org/2000/svg">
<g clip-path="url(#clip0_422_339)">
<path d="M13.1266 16.2232C13.1266 13.389 10.8208 11.0833 7.98656 11.0833C5.15238 11.0833 2.84668 13.389 2.84668 16.2232C2.84668 17.0537 3.04485 17.8388 3.3962 18.5337L7.98656 28L12.5777 18.5323C12.9286 17.8376 13.1266 17.0531 13.1266 16.2232ZM7.98656 19.0676C6.41818 19.0676 5.14212 17.7916 5.14212 16.2232C5.14212 14.6548 6.41818 13.3788 7.98656 13.3788C9.55501 13.3788 10.831 14.6548 10.831 16.2232C10.831 17.7916 9.55501 19.0676 7.98656 19.0676Z" fill="black"/>
<path d="M22.551 0C21.1159 0 19.9482 1.16756 19.9482 2.60269C19.9482 3.02326 20.0486 3.42076 20.2265 3.77276L22.551 8.56624L24.8758 3.772C25.0535 3.42024 25.1537 3.02297 25.1537 2.60275C25.1537 1.16756 23.9861 0 22.551 0ZM22.551 4.04306C21.7567 4.04306 21.1106 3.39693 21.1106 2.60269C21.1106 1.8085 21.7567 1.16232 22.551 1.16232C23.3451 1.16232 23.9913 1.8085 23.9913 2.60269C23.9913 3.39693 23.3451 4.04306 22.551 4.04306Z" fill="black"/>
<path d="M20.2842 16.8851C20.1786 16.3885 20.0414 15.9018 19.8687 15.424C19.6371 14.7839 19.3594 14.1582 19.1467 13.5108C18.7491 12.3005 19.435 11.2905 19.5639 11.1069C19.7897 10.7854 20.0538 10.4904 20.3324 10.2141C20.8689 9.68226 21.4605 9.20679 22.0795 8.76891C22.0028 8.65011 21.9285 8.53002 21.8578 8.40771C20.9675 8.75674 16.3892 10.3569 16.5008 13.8919C16.5232 14.6006 16.797 15.275 16.9657 15.9619C17.047 16.2929 17.1175 16.6269 17.1606 16.9652C17.1792 17.1175 17.1906 17.2707 17.2031 17.4237C17.2035 17.4226 17.2033 17.4217 17.2026 17.4211C17.203 17.4255 17.2144 17.9062 17.1931 18.1145C17.1263 18.7664 17.03 19.4252 16.7551 20.0232C16.4995 20.5793 16.1139 21.0628 15.6368 21.445C14.5463 22.3187 13.1014 22.668 11.738 22.8084C11.6731 22.8152 11.6082 22.821 11.5432 22.8267L9.10889 27.8465C10.31 27.7719 11.508 27.6075 12.6769 27.3199C14.0524 26.9813 15.3929 26.4699 16.594 25.7118C17.7941 24.9546 18.8261 23.9301 19.5132 22.6828C20.2319 21.3782 20.5199 19.8838 20.4586 18.403C20.4378 17.8971 20.3898 17.3815 20.2842 16.8851Z" fill="black"/>
</g>
<defs>
<clipPath id="clip0_422_339">
<rect width="28" height="28" fill="white"/>
</clipPath>
</defs>
</svg>
