<svg width="28" height="28" viewBox="0 0 28 28" fill="none" xmlns="http://www.w3.org/2000/svg">
<path d="M13.5 1.0001C24.5 1.52392 27.9 25.8001 13.5 27.0001C-0.900024 28.2001 3.00016 0.500097 13.5 1.0001Z" fill="white"/>
<path d="M14 0C9.34131 0 3.60596 6.57573 3.60596 15.4847C3.60596 24.394 8.90889 28 14 28C19.0908 28 24.394 24.394 24.394 15.4847C24.394 6.57573 18.6585 0 14 0ZM14 26.0312C9.92701 26.0312 5.57471 23.2606 5.57471 15.4847C5.57471 11.795 6.66529 8.27154 8.64536 5.56363C10.2665 3.34616 12.3181 1.96875 14 1.96875C15.6816 1.96875 17.7335 3.34616 19.3546 5.56358C21.3347 8.27148 22.4252 11.795 22.4252 15.4847C22.4252 23.2606 18.0729 26.0312 14 26.0312Z" fill="black"/>
</svg>
